# xmcd
#
# Track frame offsets:
# 150
# 3051
# 26764
# 46710
# 65140
# 79238
# 99327
# 113237
# 137425
# 155275
# 172027
#
# Disc length: 2605 seconds
#
#
# Revision: 0
# Processed by: cddbd v1.5.2PL0 Copyright (c) Steve Scherf et al.
# Submitted via: FreeRIP 2.945 
#
DISCID=800a2b0b
DTITLE=Double Trouble - Been A Long Time
DYEAR=2001
DGENRE=Blues
TTITLE0=Cry Sky
TTITLE1=Turn Towards the Mirror
TTITLE2=Say One Thing
TTITLE3=Rock and Roll
TTITLE4=Skyscraper
TTITLE5=In the Middle of the Night
TTITLE6=She's Alright
TTITLE7=Ground Hog Day
TTITLE8=In the Garden
TTITLE9=Baby, There's No One Like You
TTITLE10=(Untitled)
EXTD=Tommy Shannon - acoustic guitar, bass\nChris Layton - piano, drums, percussion
EXTT0=
EXTT1=
EXTT2=
EXTT3=
EXTT4=
EXTT5=
EXTT6=
EXTT7=
EXTT8=
EXTT9=
EXTT10=
PLAYORDER=
